<?xml version="1.0" encoding="UTF-8" standalone="no"?>
<svg
   xmlns:dc="http://purl.org/dc/elements/1.1/"
   xmlns:cc="http://creativecommons.org/ns#"
   xmlns:rdf="http://www.w3.org/1999/02/22-rdf-syntax-ns#"
   xmlns:svg="http://www.w3.org/2000/svg"
   xmlns="http://www.w3.org/2000/svg"
   xmlns:sodipodi="http://sodipodi.sourceforge.net/DTD/sodipodi-0.dtd"
   xmlns:inkscape="http://www.inkscape.org/namespaces/inkscape"
   version="1.1"
   width="150"
   height="150"
   shape-rendering="crispEdges"
   id="svg10355"
   sodipodi:docname="NRSE_snowflake.svg"
   inkscape:version="0.92.5 (2060ec1f9f, 2020-04-08)">
  <metadata
     id="metadata10361">
    <rdf:RDF>
      <cc:Work
         rdf:about="">
        <dc:format>image/svg+xml</dc:format>
        <dc:type
           rdf:resource="http://purl.org/dc/dcmitype/StillImage" />
        <dc:title></dc:title>
      </cc:Work>
    </rdf:RDF>
  </metadata>
  <defs
     id="defs10359" />
  <sodipodi:namedview
     pagecolor="#ffffff"
     bordercolor="#666666"
     borderopacity="1"
     objecttolerance="10"
     gridtolerance="10"
     guidetolerance="10"
     inkscape:pageopacity="0"
     inkscape:pageshadow="2"
     inkscape:window-width="1848"
     inkscape:window-height="1016"
     id="namedview10357"
     showgrid="false"
     inkscape:zoom="89.386667"
     inkscape:cx="61.27881"
     inkscape:cy="128.55727"
     inkscape:window-x="72"
     inkscape:window-y="27"
     inkscape:window-maximized="1"
     inkscape:current-layer="svg10355" />
  <path
     style="fill:#740048;fill-opacity:1"
     d="m 63.494033,6.2529833 c 0,3.9999997 0,7.9999997 0,11.9999997 2,0 4,0 6,0 0,-2 0,-4 0,-6 2,0 4,0 6,0 0,2 0,4 0,6 2,0 4,0 6,0 0,-4 0,-8 0,-11.9999997 -6,0 -12,0 -18,0 z m 12,11.9999997 c -2,0 -4,0 -6,0 0,3.666667 0,7.333333 0,11 -2,0 -4,0 -6,0 0,2 0,4 0,6 2,0 4,0 6,0 0,3 0,6 0,9 -2,0 -4,0 -6,0 0,2 0,4 0,6 2,0 4,0 6,0 0,5.333333 0,10.666667 0,16 -2,0 -4,0 -6,0 0,2 0,4 0,6 -5.333333,0 -10.666667,0 -16,0 0,-2 0,-4 0,-6 -2,0 -4,0 -6,0 0,2 0,4 0,6 -3,0 -6,0 -9,0 0,-2 0,-4 0,-6 -2,0 -4,0 -6,0 0,2 0,4 0,6 -3.666667,0 -7.333333,0 -11,0 0,2 0,4 0,6 3.666667,0 7.333333,0 11,0 0,2 0,4 0,6 2,0 4,0 6,0 0,-2 0,-4 0,-6 3,0 6,0 9,0 0,2 0,4 0,6 2,0 4,0 6,0 0,-2 0,-4 0,-6 5.333333,0 10.666667,0 16,0 0,1.666667 0,3.333333 0,5 2,0 4,0 6,0 0,5.333333 0,10.666667 0,16 -2,0 -4,0 -6,0 0,1.999997 0,3.999997 0,5.999997 2,0 4,0 6,0 0,3 0,6 0,9 -2,0 -4,0 -6,0 0,2 0,4 0,6 2,0 4,0 6,0 0,3.66667 0,7.33333 0,11 2,0 4,0 6,0 0,-3.66667 0,-7.33333 0,-11 2,0 4,0 6,0 0,-2 0,-4 0,-6 -2,0 -4,0 -6,0 0,-3 0,-6 0,-9 2,0 4,0 6,0 0,-2 0,-4 0,-5.999997 -2,0 -4,0 -6,0 0,-5.333333 0,-10.666667 0,-16 2,0 4,0 6,0 0,-1.666667 0,-3.333333 0,-5 5.333333,0 10.666667,0 16,0 0,2 0,4 0,6 1.999999,0 3.999997,0 5.999997,0 0,-2 0,-4 0,-6 3,0 6,0 9,0 0,2 0,4 0,6 2,0 4,0 6,0 0,-2 0,-4 0,-6 3.66667,0 7.33333,0 11,0 0,-2 0,-4 0,-6 -3.66667,0 -7.33333,0 -11,0 0,-2 0,-4 0,-6 -2,0 -4,0 -6,0 0,2 0,4 0,6 -3,0 -6,0 -9,0 0,-2 0,-4 0,-6 -2,0 -3.999998,0 -5.999997,0 0,2 0,4 0,6 -5.333333,0 -10.666667,0 -16,0 0,-2 0,-4 0,-6 -2,0 -4,0 -6,0 0,-5.333333 0,-10.666667 0,-16 2,0 4,0 6,0 0,-2 0,-4 0,-6 -2,0 -4,0 -6,0 0,-3 0,-6 0,-9 2,0 4,0 6,0 0,-2 0,-4 0,-6 -2,0 -4,0 -6,0 0,-3.666667 0,-7.333333 0,-11 z m 6,11 c 2,0 4,0 6,0 0,-2 0,-4 0,-6 -2,0 -4,0 -6,0 0,2 0,4 0,6 z m 6,-6 c 2,0 4,0 6,0 0,-2 0,-4 0,-6 -2,0 -4,0 -6,0 0,2 0,4 0,6 z m -6,21 c 2,0 4,0 6,0 0,-2 0,-4 0,-6 -2,0 -4,0 -6,0 0,2 0,4 0,6 z m 0,22 c 2,0 4,0 6,0 0,-2 0,-4 0,-6 -2,0 -4,0 -6,0 0,2 0,4 0,6 z m 6,-6 c 2,0 4,0 6,0 0,-2 0,-4 0,-6 -2,0 -4,0 -6,0 0,2 0,4 0,6 z m 6,-6 c 2,0 4,0 6,0 0,-2 0,-4 0,-6 -2,0 -4,0 -6,0 0,2 0,4 0,6 z m 6,-6 c 1.999997,0 3.999997,0 5.999997,0 0,-2 0,-4 0,-6 -2,0 -4,0 -5.999997,0 0,2 0,4 0,6 z m 5.999997,-6 c 2,0 4,0 6,0 0,-2 0,-4 0,-6 -2,0 -4,0 -6,0 0,2 0,4 0,6 z m 0,-6 c 0,-2 0,-4 0,-6 -2,0 -4,0 -5.999997,0 0,2 0,4 0,6 1.999997,0 3.999997,0 5.999997,0 z m 6,0 c 2,0 4,0 6,0 0,-2 0,-4 0,-6 -2,0 -4,0 -6,0 0,2 0,4 0,6 z m 0,6 c 0,2 0,4 0,6 2,0 4,0 6,0 0,-2 0,-4 0,-6 -2,0 -4,0 -6,0 z m -8,24 c 2,0 4,0 6,0 0,-2 0,-4 0,-6 -2,0 -4,0 -6,0 0,2 0,4 0,6 z m 15,0 c 2,0 4,0 6,0 0,-2 0,-4 0,-6 -2,0 -4,0 -6,0 0,2 0,4 0,6 z m 6,-6 c 2,0 4,0 6,0 0,-2 0,-4 0,-6 -2,0 -4,0 -6,0 0,2 0,4 0,6 z m 5,12 c 2,0 4,0 6,0 0,2 0,4 0,6 -2,0 -4,0 -6,0 0,2 0,4 0,6 4,0 8,0 12,0 0,-6 0,-12 0,-18 -4,0 -8,0 -12,0 0,2 0,4 0,6 z m -11,12 c 0,2 0,4 0,6 2,0 4,0 6,0 0,-2 0,-4 0,-6 -2,0 -4,0 -6,0 z m 6,6 c 0,2 0,4 0,6 2,0 4,0 6,0 0,-2 0,-4 0,-6 -2,0 -4,0 -6,0 z m -21,-6 c 0,2 0,4 0,6 2,0 4,0 6,0 0,-2 0,-4 0,-6 -2,0 -4,0 -6,0 z m -21.999997,-1 c 0,2 0,4 0,6 2,0 4,0 6,0 0,-2 0,-4 0,-6 -2,0 -4,0 -6,0 z m 6,6 c 0,2 0,4 0,6 2,0 4,0 6,0 0,-2 0,-4 0,-6 -2,0 -4,0 -6,0 z m 6,6 c 0,1.999999 0,3.999998 0,5.999997 2,0 4,0 6,0 0,-1.999999 0,-3.999998 0,-5.999997 -2,0 -4,0 -6,0 z m 6,5.999997 c 0,2 0,4 0,6 1.999997,0 3.999997,0 5.999997,0 0,-2 0,-4 0,-6 -2,0 -4,0 -5.999997,0 z m 5.999997,6 c 0,2 0,4 0,6 2,0 4,0 6,0 0,-2 0,-4 0,-6 -2,0 -4,0 -6,0 z m 6,0 c 2,0 4,0 6,0 0,-2 0,-4 0,-6 -2,0 -4,0 -6,0 0,2 0,4 0,6 z m 0,6 c 0,2 0,4 0,6 2,0 4,0 6,0 0,-2 0,-4 0,-6 -2,0 -4,0 -6,0 z m -6,0 c -2,0 -4,0 -5.999997,0 0,2 0,4 0,6 1.999997,0 3.999997,0 5.999997,0 0,-2 0,-4 0,-6 z m -23.999997,-8 c 0,2 0,4 0,6 2,0 4,0 6,0 0,-2 0,-4 0,-6 -2,0 -4,0 -6,0 z m 0,15 c 0,2 0,4 0,6 2,0 4,0 6,0 0,-2 0,-4 0,-6 -2,0 -4,0 -6,0 z m 6,6 c 0,2 0,4 0,6 2,0 4,0 6,0 0,-2 0,-4 0,-6 -2,0 -4,0 -6,0 z m -12,5 c 0,2 0,4 0,6 -2,0 -4,0 -6,0 0,-2 0,-4 0,-6 -2,0 -4,0 -6,0 0,4 0,8 0,12 6,0 12,0 18,0 0,-4 0,-8 0,-12 -2,0 -4,0 -6,0 z m -12,-11 c -2,0 -4,0 -6,0 0,2 0,4 0,6 2,0 4,0 6,0 0,-2 0,-4 0,-6 z m -6,6 c -2,0 -4,0 -6,0 0,2 0,4 0,6 2,0 4,0 6,0 0,-2 0,-4 0,-6 z m 6,-21 c -2,0 -4,0 -6,0 0,2 0,4 0,6 2,0 4,0 6,0 0,-2 0,-4 0,-6 z m 0,-21.999997 c -2,0 -4,0 -6,0 0,2 0,4 0,6 2,0 4,0 6,0 0,-2 0,-4 0,-6 z m -6,6 c -2,0 -4,0 -6,0 0,2 0,4 0,6 2,0 4,0 6,0 0,-2 0,-4 0,-6 z m -6,6 c -2,0 -4,0 -6,0 0,1.999999 0,3.999998 0,5.999997 2,0 4,0 6,0 0,-1.999999 0,-3.999998 0,-5.999997 z m -6,5.999997 c -2,0 -4,0 -6,0 0,2 0,4 0,6 2,0 4,0 6,0 0,-2 0,-4 0,-6 z m -6,6 c -2,0 -4,0 -6,0 0,2 0,4 0,6 2,0 4,0 6,0 0,-2 0,-4 0,-6 z m 0,6 c 0,2 0,4 0,6 2,0 4,0 6,0 0,-2 0,-4 0,-6 -2,0 -4,0 -6,0 z m -6,0 c -2,0 -4,0 -6,0 0,2 0,4 0,6 2,0 4,0 6,0 0,-2 0,-4 0,-6 z m 0,-6 c 0,-2 0,-4 0,-6 -2,0 -4,0 -6,0 0,2 0,4 0,6 2,0 4,0 6,0 z m 8,-22.999997 c -2,0 -4,0 -6,0 0,2 0,4 0,6 2,0 4,0 6,0 0,-2 0,-4 0,-6 z m -15,0 c -2,0 -4,0 -6,0 0,2 0,4 0,6 2,0 4,0 6,0 0,-2 0,-4 0,-6 z m -6,6 c -2,0 -4,0 -6,0 0,2 0,4 0,6 2,0 4,0 6,0 0,-2 0,-4 0,-6 z m -5,-12 c -2,0 -4,0 -5.9999996,0 0,-2 0,-4 0,-6 1.9999996,0 3.9999996,0 5.9999996,0 0,-2 0,-4 0,-6 -4,0 -7.9999997,0 -11.9999996,0 0,6 0,12 0,18 3.9999999,0 7.9999996,0 11.9999996,0 0,-2 0,-4 0,-6 z m 11,-12 c 0,-2 0,-4 0,-6 -2,0 -4,0 -6,0 0,2 0,4 0,6 2,0 4,0 6,0 z m -6,-6 c 0,-2 0,-4 0,-6 -2,0 -4,0 -6,0 0,2 0,4 0,6 2,0 4,0 6,0 z m 21,6 c 0,-2 0,-4 0,-6 -2,0 -4,0 -6,0 0,2 0,4 0,6 2,0 4,0 6,0 z m 22,0 c 0,-2 0,-4 0,-6 -2,0 -4,0 -6,0 0,2 0,4 0,6 2,0 4,0 6,0 z m -6,-6 c 0,-2 0,-4 0,-6 -2,0 -4,0 -6,0 0,2 0,4 0,6 2,0 4,0 6,0 z m -6,-6 c 0,-2 0,-4 0,-6 -2,0 -4,0 -6,0 0,2 0,4 0,6 2,0 4,0 6,0 z m -6,-6 c 0,-2 0,-4 0,-6 -2,0 -4,0 -6,0 0,2 0,4 0,6 2,0 4,0 6,0 z m -6,-6 c 0,-2 0,-4 0,-6 -2,0 -4,0 -6,0 0,2 0,4 0,6 2,0 4,0 6,0 z m -6,0 c -2,0 -4,0 -6,0 0,2 0,4 0,6 2,0 4,0 6,0 0,-2 0,-4 0,-6 z m 0,-6 c 0,-2 0,-4 0,-6 -2,0 -4,0 -6,0 0,2 0,4 0,6 2,0 4,0 6,0 z m 6,0 c 2,0 4,0 6,0 0,-2 0,-4 0,-6 -2,0 -4,0 -6,0 0,2 0,4 0,6 z m 24,8 c 0,-2 0,-4 0,-6 -2,0 -4,0 -6,0 0,2 0,4 0,6 2,0 4,0 6,0 z m 0,-15 c 0,-2 0,-4 0,-6 -2,0 -4,0 -6,0 0,2 0,4 0,6 2,0 4,0 6,0 z m -6,-6 c 0,-2 0,-4 0,-6 -2,0 -4,0 -6,0 0,2 0,4 0,6 2,0 4,0 6,0 z"
     id="rect815"
     inkscape:connector-curvature="0" />
</svg>
