<?xml version="1.0" encoding="UTF-8" standalone="no"?>
<svg
   version="1.0"
   width="1280.000000pt"
   height="989.000000pt"
   viewBox="0 0 1280.000000 989.000000"
   preserveAspectRatio="xMidYMid meet"
   id="svg1"
   sodipodi:docname="NordicRSE_rounded.svg"
   inkscape:version="1.3.2 (1:1.3.2+202311252150+091e20ef0f)"
   inkscape:export-filename="Nordic_RSE_node_snowflake_bg.png"
   inkscape:export-xdpi="96"
   inkscape:export-ydpi="96"
   xmlns:inkscape="http://www.inkscape.org/namespaces/inkscape"
   xmlns:sodipodi="http://sodipodi.sourceforge.net/DTD/sodipodi-0.dtd"
   xmlns="http://www.w3.org/2000/svg"
   xmlns:svg="http://www.w3.org/2000/svg">
  <defs
     id="defs1">
    <inkscape:path-effect
       effect="fillet_chamfer"
       id="path-effect7"
       is_visible="true"
       lpeversion="1"
       nodesatellites_param="F,0,1,1,0,14.316853,0,1 @ F,0,0,1,0,23.715086,0,1 @ F,0,0,1,0,0,0,1 @ F,0,0,1,0,0,0,1 @ F,0,0,1,0,0,0,1 @ F,0,0,1,0,0,0,1 @ F,0,0,1,0,0,0,1 @ F,0,0,1,0,0,0,1 @ F,0,0,1,0,0,0,1 @ F,0,0,1,0,21.103173,0,1 @ F,0,0,1,0,14.316853,0,1 @ F,0,0,1,0,0,0,1 @ F,0,0,1,0,0,0,1 @ F,0,0,1,0,0,0,1 @ F,0,0,1,0,0,0,1 @ F,0,0,1,0,0,0,1 @ F,0,0,1,0,0,0,1 @ F,0,0,1,0,0,0,1"
       radius="0"
       unit="px"
       method="auto"
       mode="F"
       chamfer_steps="1"
       flexible="false"
       use_knot_distance="true"
       apply_no_radius="true"
       apply_with_radius="true"
       only_selected="false"
       hide_knots="false" />
    <inkscape:path-effect
       effect="fillet_chamfer"
       id="path-effect5"
       is_visible="true"
       lpeversion="1"
       nodesatellites_param="F,0,0,1,0,20.13157,0,1 @ F,0,0,1,0,20.327825,0,1 @ F,0,0,1,0,21.070452,0,1 @ F,0,0,1,0,21.795897,0,1 | F,0,0,1,0,19.058256,0,1 @ F,0,0,1,0,18.086219,0,1 @ F,0,0,1,0,18.829937,0,1 @ F,0,0,1,0,19.345176,0,1"
       radius="0"
       unit="px"
       method="auto"
       mode="F"
       chamfer_steps="1"
       flexible="false"
       use_knot_distance="true"
       apply_no_radius="true"
       apply_with_radius="true"
       only_selected="false"
       hide_knots="false" />
    <inkscape:path-effect
       effect="fillet_chamfer"
       id="path-effect2"
       is_visible="true"
       lpeversion="1"
       nodesatellites_param="F,0,0,1,0,11.224157,0,1 @ F,0,0,1,0,23.255489,0,1 @ F,0,0,1,0,23.209821,0,1 @ F,0,0,1,0,19.074021,0,1 @ F,0,0,1,0,19.689335,0,1 @ F,0,0,1,0,9.8478298,0,1 @ F,0,0,1,0,0,0,1 @ F,0,0,1,0,0,0,1 @ F,0,0,1,0,0,0,1 @ F,0,0,1,0,0,0,1 @ F,0,0,1,0,0,0,1 @ F,0,0,1,0,0,0,1 @ F,0,0,1,0,0,0,1 | F,0,0,1,0,0,0,1 @ F,0,0,1,0,0,0,1 @ F,0,0,1,0,0,0,1 @ F,0,0,1,0,0,0,1 @ F,0,0,1,0,0,0,1 @ F,0,0,1,0,0,0,1 @ F,0,0,1,0,0,0,1 @ F,0,0,1,0,0,0,1"
       radius="0"
       unit="px"
       method="auto"
       mode="F"
       chamfer_steps="1"
       flexible="false"
       use_knot_distance="true"
       apply_no_radius="true"
       apply_with_radius="true"
       only_selected="false"
       hide_knots="false" />
    <inkscape:path-effect
       effect="fillet_chamfer"
       id="path-effect1"
       is_visible="true"
       lpeversion="1"
       nodesatellites_param="F,0,0,1,0,22.19695,0,1 @ F,0,0,1,0,0,0,1 @ F,0,0,1,0,0,0,1 @ F,0,0,1,0,0,0,1 @ F,0,0,1,0,18.784951,0,1 @ F,0,0,1,0,19.502036,0,1 @ F,0,0,1,0,20.253266,0,1 @ F,0,0,1,0,22.926237,0,1 @ F,0,0,1,0,10.256509,0,1 @ F,0,0,1,0,0,0,1 @ F,0,0,1,0,0,0,1 @ F,0,0,1,0,0,0,1 @ F,0,0,1,0,12.62636,0,1"
       radius="0"
       unit="px"
       method="auto"
       mode="F"
       chamfer_steps="1"
       flexible="false"
       use_knot_distance="true"
       apply_no_radius="true"
       apply_with_radius="true"
       only_selected="false"
       hide_knots="false" />
    <inkscape:path-effect
       effect="fillet_chamfer"
       id="path-effect6"
       is_visible="true"
       lpeversion="1"
       nodesatellites_param="F,0,0,1,0,24.602283,0,1 @ F,0,0,1,0,20.46462,0,1 @ F,0,0,1,0,7.8915887,0,1 @ F,0,0,1,0,23.000479,0,1 @ F,0,0,1,0,23.226303,0,1 @ F,0,0,1,0,21.733767,0,1 @ F,0,0,1,0,20.96034,0,1 @ F,0,0,1,0,7.2833353,0,1 @ F,0,0,1,0,22.651566,0,1 @ F,0,0,1,0,21.3422,0,1"
       radius="0"
       unit="px"
       method="auto"
       mode="F"
       chamfer_steps="1"
       flexible="false"
       use_knot_distance="true"
       apply_no_radius="true"
       apply_with_radius="true"
       only_selected="false"
       hide_knots="false" />
    <inkscape:path-effect
       effect="fillet_chamfer"
       id="path-effect4"
       is_visible="true"
       lpeversion="1"
       nodesatellites_param="F,0,0,1,0,8.7699194,0,1 @ F,0,0,1,0,0,0,1 @ F,0,0,1,0,0,0,1 @ F,0,0,1,0,29.957027,0,1 @ F,0,0,1,0,15.498533,0,1 @ F,0,0,1,0,0,0,1 @ F,0,0,1,0,0,0,1 @ F,0,0,1,0,0,0,1 @ F,0,0,1,0,12.992636,0,1 @ F,0,0,1,0,26.799062,0,1 @ F,0,0,1,0,26.738948,0,1 @ F,0,0,1,0,27.503507,0,1 @ F,0,0,1,0,0,0,1 @ F,0,0,1,0,0,0,1 @ F,0,0,1,0,0,0,1 @ F,0,0,1,0,0,0,1 | F,0,0,1,0,14.966696,0,1 @ F,0,0,1,0,9.938557,0,1 @ F,0,0,1,0,0,0,1 @ F,0,0,1,0,0,0,1 @ F,0,0,1,0,0,0,1 @ F,0,0,1,0,0,0,1 @ F,0,0,1,0,0,0,1 | F,0,0,1,0,17.786755,0,1 @ F,0,0,1,0,33.67914,0,1 @ F,0,0,1,0,0,0,1 @ F,0,0,1,0,0,0,1 @ F,0,0,1,0,0,0,1 @ F,0,0,1,0,0,0,1 @ F,0,0,1,0,0,0,1 @ F,0,0,1,0,0,0,1 @ F,0,0,1,0,0,0,1 @ F,0,0,1,0,0,0,1 @ F,0,0,1,0,0,0,1 @ F,0,0,1,0,0,0,1 @ F,0,0,1,0,0,0,1 @ F,0,0,1,0,0,0,1 @ F,0,0,1,0,19.983305,0,1 @ F,0,0,1,0,34.072851,0,1 @ F,0,0,1,0,0,0,1 @ F,0,0,1,0,0,0,1 @ F,0,0,1,0,0,0,1 @ F,0,0,1,0,0,0,1 @ F,0,0,1,0,0,0,1 @ F,0,0,1,0,0,0,1 @ F,0,0,1,0,0,0,1 @ F,0,0,1,0,0,0,1 @ F,0,0,1,0,0,0,1 @ F,0,0,1,0,0,0,1 @ F,0,0,1,0,0,0,1 @ F,0,0,1,0,0,0,1 | F,0,0,1,0,29.573309,0,1 @ F,0,0,1,0,20.966539,0,1 @ F,0,0,1,0,21.604592,0,1 @ F,0,0,1,0,14.045867,0,1 @ F,0,0,1,0,11.097379,0,1 @ F,0,0,1,0,20.489745,0,1 @ F,0,0,1,0,24.595477,0,1 @ F,0,0,1,0,12.051291,0,1 @ F,0,0,1,0,11.025155,0,1 @ F,0,0,1,0,20.79453,0,1 @ F,0,0,1,0,22.524561,0,1 @ F,0,0,1,0,29.31605,0,1"
       radius="0"
       unit="px"
       method="auto"
       mode="F"
       chamfer_steps="1"
       flexible="false"
       use_knot_distance="true"
       apply_no_radius="true"
       apply_with_radius="true"
       only_selected="false"
       hide_knots="false" />
    <inkscape:path-effect
       effect="fillet_chamfer"
       id="path-effect3"
       is_visible="true"
       lpeversion="1"
       nodesatellites_param="F,0,0,1,0,15.125603,0,1 @ F,0,1,1,0,15.125603,0,1 @ F,0,0,1,0,22.196939,0,1 @ F,0,0,1,0,22.062804,0,1 @ F,0,0,1,0,0,0,1 @ F,0,0,1,0,0,0,1 @ F,0,0,1,0,0,0,1 @ F,0,0,1,0,0,0,1 @ F,0,0,1,0,0,0,1 @ F,0,0,1,0,28.20326,0,1 @ F,0,0,1,0,19.787575,0,1 @ F,0,0,1,0,0,0,1 @ F,0,0,1,0,0,0,1 @ F,0,0,1,0,0,0,1 @ F,0,0,1,0,0,0,1 @ F,0,0,1,0,0,0,1 @ F,0,0,1,0,0,0,1 @ F,0,0,1,0,0,0,1 @ F,0,0,1,0,15.125603,0,1"
       radius="0"
       unit="px"
       method="auto"
       mode="F"
       chamfer_steps="1"
       flexible="false"
       use_knot_distance="true"
       apply_no_radius="true"
       apply_with_radius="true"
       only_selected="false"
       hide_knots="false" />
  </defs>
  <sodipodi:namedview
     id="namedview1"
     pagecolor="#ffffff"
     bordercolor="#000000"
     borderopacity="0.25"
     inkscape:showpageshadow="2"
     inkscape:pageopacity="0.0"
     inkscape:pagecheckerboard="0"
     inkscape:deskcolor="#d1d1d1"
     inkscape:document-units="pt"
     showgrid="true"
     inkscape:zoom="0.24270998"
     inkscape:cx="1907.6265"
     inkscape:cy="259.56905"
     inkscape:window-width="1920"
     inkscape:window-height="1016"
     inkscape:window-x="0"
     inkscape:window-y="0"
     inkscape:window-maximized="1"
     inkscape:current-layer="svg1"
     inkscape:export-bgcolor="#ffffffff"
     showguides="true">
    <inkscape:grid
       id="grid5"
       units="pt"
       originx="0"
       originy="0"
       spacingx="1"
       spacingy="1"
       empcolor="#0099e5"
       empopacity="0.30196078"
       color="#0099e5"
       opacity="0.14901961"
       empspacing="5"
       dotted="false"
       gridanglex="30"
       gridanglez="30"
       visible="true" />
    <sodipodi:guide
       position="700.77165,829.14785"
       orientation="1,0"
       id="guide5"
       inkscape:locked="false" />
    <sodipodi:guide
       position="740.0836,568.55598"
       orientation="0,-1"
       id="guide6"
       inkscape:locked="false" />
  </sodipodi:namedview>
  <metadata
     id="metadata1">
Created by potrace 1.15, written by Peter Selinger 2001-2017
</metadata>
  <g
     transform="matrix(0.1,0,0,-0.1,-1.5,989)"
     fill="#000000"
     stroke="none"
     id="g1"
     style="fill:#71137d;fill-opacity:1;stroke:none;stroke-width:2.83465;stroke-dasharray:none;stroke-opacity:1"
     inkscape:export-filename="nrse_logo_round.png"
     inkscape:export-xdpi="96"
     inkscape:export-ydpi="96">
    <path
       d="M 7014.7956,5146.2028 7012,5896 l -3,459 6,565 c 0.1415,2.9967 -5,183 -4,408 v 407 c 1.641,-2.1968 0,564 0,564 l -3,643 c -3,715 1,672 -72,736 -57,50 -128,63 -200,37 -44,-15 -90,-56 -114,-100 -15,-27 -18,-99 -22,-674 l -5,-643 -380,367 c -224,216 -394,374 -415,382 -22,10 -56,14 -97,11 -51,-3 -69,-9 -100,-34 -50,-40 -83,-105 -83,-165 0,-29 8,-61 23,-87 13,-25 167,-181 392,-399 204,-196 436,-422 518,-502 l 147,-146 -2,-413 -3,-412 -229,215 c -126,119 -241,222 -256,230 -43,22 -104,29 -146,15 -94,-30 -144,-100 -144,-198 0,-51 5,-66 33,-106 17,-25 193,-197 390,-382 l 357,-336 v -456 -457 l -53,55 c -28,30 -308,318 -622,640 -313,322 -616,633 -673,691 -60,61 -101,112 -98,120 2,8 7,138 11,289 3,151 10,392 15,535 15,425 15,567 -3,601 -38,73 -104,114 -184,114 -99,-1 -186,-73 -197,-163 -3,-23 -10,-208 -16,-412 -10,-369 -18,-567 -24,-572 -1,-2 -45,41 -97,95 -526,543 -889,907 -916,919 -118,49 -266,-35 -280,-158 -11,-101 -10,-103 345,-467 180,-185 399,-410 487,-500 l 160,-165 -220,7 c -121,4 -350,11 -510,17 -306,10 -331,7 -392,-33 -42,-29 -83,-109 -83,-162 1,-93 70,-177 162,-195 29,-6 242,-15 473,-21 231,-6 546,-15 700,-20 l 280,-9 65,-69 c 36,-38 322,-331 635,-652 314,-321 605,-621 648,-666 l 79,-84 h -464 -464 l -339,363 c -186,199 -354,373 -372,386 -47,35 -134,40 -195,13 -68,-30 -118,-109 -118,-186 1,-64 38,-115 251,-341 116,-124 209,-228 207,-231 -3,-2 -190,-1 -417,2 l -411,7 -77,81 c -43,45 -264,272 -491,506 -460,472 -477,486 -571,476 -67,-6 -126,-44 -158,-101 -31,-55 -31,-137 0,-193 12,-22 180,-201 372,-397 193,-196 352,-361 353,-366 2,-5 -253,-9 -618,-9 -600,0 -622,-1 -660,-20 -59,-30 -110,-111 -110,-174 0,-74 55,-155 125,-187 37,-17 82,-19 658,-19 339,0 617,-3 617,-6 0,-3 -163,-172 -362,-375 -200,-203 -373,-389 -386,-412 -33,-59 -28,-148 11,-204 64,-92 193,-116 281,-51 17,13 211,208 431,433 219,226 442,454 494,508 l 96,97 412,-2 413,-3 -210,-220 c -116,-121 -219,-237 -230,-257 -27,-50 -27,-136 0,-188 49,-95 175,-134 272,-84 15,8 185,180 379,384 l 352,370 h 327 c 180,0 402,-3 493,-7 l 167,-6 -113,-116 C 5928,4311 5043,3394 4966,3313 l -88,-93 h -693 c -491,0 -702,-3 -726,-11 -89,-30 -139,-101 -139,-197 0,-74 38,-140 102,-174 l 43,-23 509,-3 509,-3 -140,-142 c -199,-203 -698,-720 -770,-798 -80,-87 -96,-138 -71,-223 26,-85 136,-157 216,-140 79,17 103,39 569,522 l 468,485 5,-534 c 4,-381 8,-540 17,-554 18,-32 76,-83 106,-94 72,-27 173,-4 224,51 54,58 53,39 53,825 l 1,728 252,260 c 138,143 442,458 676,700 233,242 444,460 467,485 l 44,45 -1,-460 -1,-460 -366,-345 c -201,-190 -375,-360 -386,-379 -24,-42 -26,-133 -3,-176 20,-40 75,-91 110,-104 40,-15 112,-14 152,3 19,8 101,78 183,154 81,76 184,174 230,217 l 82,77 v -413 -414 l -520,-503 c -347,-335 -527,-517 -541,-544 -30,-58 -23,-140 15,-198 53,-81 166,-110 256,-66 19,9 204,181 410,381 l 375,363 5,-626 c 6,-697 1,-656 74,-720 77,-67 185,-67 262,0 73,64 68,24 74,717 l 5,623 370,-364 c 306,-302 379,-368 418,-383 93,-35 199,5 245,95 32,61 28,153 -8,202 -14,19 -251,256 -527,528 l -503,493 v 415 415 l 78,-74 c 284,-270 386,-362 417,-375 40,-17 112,-18 152,-3 38,14 92,67 109,106 18,41 18,124 0,167 -9,21 -145,156 -384,382 l -371,349 v 460 l -1,460 158,-160 c 348,-352 1277,-1308 1283,-1319 3,-6 2,-105 -2,-221 -4,-115 -10,-318 -14,-450 -4,-132 -10,-346 -14,-475 -9,-251 -5,-284 36,-338 50,-67 131,-94 214,-72 57,16 123,81 137,135 10,38 15,168 27,640 3,116 8,246 11,291 l 6,81 197,-201 c 108,-111 322,-329 474,-486 160,-164 295,-295 319,-307 69,-38 167,-25 226,30 59,55 80,161 46,233 -9,18 -227,250 -485,515 -258,265 -468,483 -466,484 1,1 234,-5 518,-13 l 476.499,-16 88.501,25 c 31,15 60,40 79,67 25,36 30,53 30,105 0,78 -26,131 -83,171 -40,28 -49,30 -180,37 -75,4 -407,15 -737,24 l -600,17 -150,151 C 8288,3694 7314,4693 7291,4721 l -24,29 h 457 457 l 27,-29 c 531,-568 687,-730 717,-744 52,-25 132,-22 186,6 88,47 127,163 86,257 -8,19 -112,139 -231,265 l -215,230 412,3 412,3 125,-129 c 69,-71 296,-308 505,-526 227,-237 394,-403 414,-412 62,-30 114,-30 175,0 69,34 105,85 113,158 10,95 0,107 -393,517 -197,205 -361,378 -363,383 -2,7 202,8 615,3 458,-5 630,-4 662,4 83,23 152,111 152,196 0,83 -68,172 -147,194 -25,7 -257,11 -662,11 h -624 l -572,1 -404,7 -1551.0521,-0.5758 z"
       id="path1"
       sodipodi:nodetypes="cccccccccccccccccscccccccccscccccccccccccccccccccccccccscccccccccccccccccccccccscscsscccccccccccccccscccccscscccccccccccccccccccccccccccccccccccccccccccccccccccccccccccccccsccccccccccscscccccsccccccccccccccccccccccccccscsccccc"
       style="fill:#71137d;fill-opacity:1;stroke:none;stroke-width:2.83465;stroke-dasharray:none;stroke-opacity:1" />
  </g>
  <path
     style="font-size:500px;line-height:120%;font-family:Sans;-inkscape-font-specification:Sans;text-align:center;text-anchor:middle;fill:#71137d;stroke:#71137d;stroke-width:0.566929;stroke-linecap:round;stroke-linejoin:round"
     d="m 2281.5568,144.44263 c -1.5519,12.94786 -12.192,18.20007 -24.7482,14.57804 -4.4826,-1.29308 -9.0589,-2.42495 -14.0005,-3.73853 -12.6953,-3.58073 -25.5534,-5.3711 -38.5743,-5.3711 -29.1341,0 -51.7578,9.27734 -67.8711,27.83203 -16.1133,18.39193 -24.1699,44.27083 -24.1699,77.63672 0,33.36589 8.0566,59.32617 24.1699,77.88086 16.1133,18.39193 38.737,27.58789 67.8711,27.58789 13.0209,0 25.879,-1.70898 38.5743,-5.12695 6.0248,-1.6778 11.8204,-2.69813 17.5848,-4.02875 11.3172,-2.61239 20.0295,2.30816 20.3343,13.95913 l 0.037,1.39242 c 0.2068,7.90428 -5.4175,17.08502 -12.8156,19.87012 -8.4154,3.16806 -17.0396,5.70987 -25.8725,7.62544 -13.3463,2.92969 -27.5879,4.39453 -42.7246,4.39453 -41.1783,0 -73.8932,-12.93945 -98.1445,-38.81836 -24.2513,-25.87891 -36.377,-60.79102 -36.377,-104.73633 0,-44.59635 12.207,-79.67122 36.6211,-105.22461 24.5769,-25.55339 58.1869,-38.33008 100.8301,-38.33008 13.8347,0 27.3438,1.46485 40.5274,4.39454 9.2676,0.78137 18.7332,3.83878 27.5986,7.71201 7.2437,3.16471 12.0911,12.66019 11.1501,20.51098 z"
     id="text1"
     aria-label="Nordic "
     sodipodi:nodetypes="cccscscsccccssscscc"
     transform="matrix(0.96402821,0,0,0.96402821,3.087564,35.360583)"
     inkscape:path-effect="#path-effect7"
     inkscape:original-d="m 2283.2606,130.22752 -4.5138,37.65898 c -12.6953,-6.9987 -23.0806,-9.18639 -35.9387,-12.60436 -12.6953,-3.58073 -25.5534,-5.3711 -38.5743,-5.3711 -29.1341,0 -51.7578,9.27734 -67.8711,27.83203 -16.1133,18.39193 -24.1699,44.27083 -24.1699,77.63672 0,33.36589 8.0566,59.32617 24.1699,77.88086 16.1133,18.39193 38.737,27.58789 67.8711,27.58789 13.0209,0 25.879,-1.70898 38.5743,-5.12695 12.8581,-3.58073 24.6719,-4.16688 37.3672,-11.16557 l 0.9628,36.80033 c -12.5325,5.85938 -25.5534,10.25391 -39.0625,13.1836 -13.3463,2.92969 -27.5879,4.39453 -42.7246,4.39453 -41.1783,0 -73.8932,-12.93945 -98.1445,-38.81836 -24.2513,-25.87891 -36.377,-60.79102 -36.377,-104.73633 0,-44.59635 12.207,-79.67122 36.6211,-105.22461 24.5769,-25.55339 58.1869,-38.33008 100.8301,-38.33008 13.8347,0 27.3438,1.46485 40.5274,4.39454 13.9419,1.17547 28.3319,7.50191 40.4525,14.00788 z" />
  <path
     style="font-size:550px;line-height:120%;font-family:Sans;-inkscape-font-specification:Sans;text-align:center;text-anchor:middle;fill:#71137d;stroke:#71137d;stroke-width:0.566929;stroke-linecap:round;stroke-linejoin:round"
     d="m 1404.4093,728.67891 c 11.1269,4.13112 21.9247,12.37497 32.3934,24.73155 11.1003,12.89063 22.2005,30.61524 33.3008,53.17383 l 41.6041,82.80222 a 18.473939,18.473939 121.66136 0 1 -16.5074,26.76809 h -12.8208 a 25.047894,25.047894 31.747397 0 1 -22.4152,-13.86954 l -44.3773,-88.9869 c -13.2487,-26.85547 -26.1393,-44.6696 -38.6719,-53.44239 -12.3535,-8.77279 -29.2724,-13.15918 -50.7568,-13.15918 h -56.2608 a 2.8212175,2.8212175 135 0 0 -2.8212,2.82122 v 139.83773 a 26.799062,26.799062 135 0 1 -26.7991,26.79906 l -0.7101,0 a 26.738948,26.738948 45 0 1 -26.7389,-26.73895 V 542.70596 a 27.503507,27.503507 135 0 1 27.5035,-27.50351 h 94.9575 c 45.8333,0 80.0293,9.57845 102.5879,28.73536 22.5585,19.1569 33.8378,48.07129 33.8378,86.74316 0,25.24414 -5.9082,46.19141 -17.7246,62.8418 -11.3811,16.2838 -27.8995,27.68727 -49.555,34.21041 -0.8106,0.24417 -0.8195,0.65109 -0.026,0.94573 z M 1267.0762,560.23552 v 138.73295 a 3.1480488,3.1480488 45 0 0 3.148,3.14805 h 65.0649 c 26.1393,0 45.8333,-5.99772 59.082,-17.99317 13.4277,-12.17448 20.1416,-29.98861 20.1416,-53.44238 0,-23.45377 -6.7139,-41.08886 -20.1416,-52.90527 -13.2487,-11.99545 -32.9427,-17.99317 -59.082,-17.99317 l -67.7599,0 a 0.45298657,0.45298657 135 0 0 -0.453,0.45299 z m 568.2617,-14.08714 v 1.43939 c 0,18.60048 -13.5397,26.95421 -30.9536,20.43397 -9.38,-3.51215 -18.4876,-6.43758 -27.3228,-8.77632 -18.2617,-4.83398 -35.8968,-7.25097 -52.9052,-7.25097 -29.5411,0 -52.3682,5.72917 -68.4815,17.1875 -15.9343,11.45833 -23.9014,27.75065 -23.9014,48.87695 0,17.72461 5.2816,31.15234 15.8448,40.2832 10.7421,8.95183 30.9732,16.2028 60.6933,21.75293 l 32.7637,6.71387 c 40.4623,7.69857 70.2718,21.30534 89.4287,40.82031 19.3359,19.33594 29.0039,45.29623 29.0039,77.88086 0,38.85091 -13.0697,68.30241 -39.209,88.35449 -25.9603,20.05209 -64.095,30.07813 -114.4043,30.07813 -18.9779,0 -39.209,-2.14844 -60.6933,-6.44531 -15.3951,-3.10489 -31.2108,-7.28483 -47.4472,-12.53981 -10.4996,-3.39822 -18.3743,-15.45978 -17.7433,-26.4782 l 1.625,-28.37738 c 0.048,-0.84518 0.6858,-1.19385 1.4282,-0.78714 21.4438,11.74624 39.8296,15.04672 60.5259,21.18546 21.1263,6.26627 41.8946,9.39941 62.3047,9.39941 30.9733,0 54.8747,-6.08724 71.7041,-18.26172 16.8295,-12.17448 25.2442,-29.54102 25.2442,-52.09961 0,-19.69401 -6.0872,-35.09114 -18.2617,-46.19141 -11.9955,-11.10026 -31.779,-19.42545 -59.3506,-24.97558 l -33.0323,-6.44531 c -40.4622,-8.05664 -69.7346,-20.67871 -87.8173,-37.86621 -18.0827,-17.1875 -27.1241,-41.08887 -27.1241,-71.70411 0,-35.44921 12.443,-63.3789 37.3291,-83.78906 25.0651,-20.41015 59.5297,-30.61523 103.3936,-30.61523 18.7988,0 37.9557,1.70085 57.4707,5.10254 14.0704,2.45263 28.3735,5.78945 42.9092,10.01045 9.4331,2.73924 16.9785,13.26056 16.9785,23.08391 z m 138.3379,-30.94593 h 202.9759 a 20.966539,20.966539 45 0 1 20.9665,20.96654 v 3.08317 a 21.604592,21.604592 135 0 1 -21.6046,21.60459 h -173.6287 a 4.0342806,4.0342806 135 0 0 -4.0343,4.03428 l 0,111.14718 a 3.5197079,3.5197079 45 0 0 3.5197,3.51971 h 166.933 a 20.489745,20.489745 45 0 1 20.4897,20.48975 l 0,0.56907 a 24.595477,24.595477 135 0 1 -24.5955,24.59548 h -162.4327 a 3.9141562,3.9141562 135 0 0 -3.9142,3.91416 V 866.9806 a 3.5197079,3.5197079 45 0 0 3.5197,3.51971 h 179.7873 a 20.79453,20.79453 45 0 1 20.7945,20.79453 v 2.3352 a 22.524561,22.524561 135 0 1 -22.5246,22.52456 h -206.5089 a 29.31605,29.31605 45 0 1 -29.3161,-29.31605 l 0,-342.06279 a 29.573309,29.573309 135 0 1 29.5733,-29.57331 z"
     id="text1-0"
     aria-label="RSE"
     transform="matrix(1.0113073,0,0,0.98750774,-39.147491,48.427388)"
     inkscape:original-d="m 1402.9648,728.16632 c 11.6374,3.9388 22.9167,12.35351 33.8379,25.24414 11.1003,12.89063 22.2005,30.61524 33.3008,53.17383 l 55.0537,109.57031 h -58.2763 l -51.294,-102.85644 c -13.2487,-26.85547 -26.1393,-44.6696 -38.6719,-53.44239 -12.3535,-8.77279 -29.2724,-13.15918 -50.7568,-13.15918 h -59.082 V 916.1546 h -54.2481 V 515.20245 h 122.461 c 45.8333,0 80.0293,9.57845 102.5879,28.73536 22.5585,19.1569 33.8378,48.07129 33.8378,86.74316 0,25.24414 -5.9082,46.19141 -17.7246,62.8418 -11.6373,16.65039 -28.6458,28.19824 -51.0254,34.64355 z M 1267.0762,559.78253 v 142.33399 h 68.2129 c 26.1393,0 45.8333,-5.99772 59.082,-17.99317 13.4277,-12.17448 20.1416,-29.98861 20.1416,-53.44238 0,-23.45377 -6.7139,-41.08886 -20.1416,-52.90527 -13.2487,-11.99545 -32.9427,-17.99317 -59.082,-17.99317 z m 568.2617,-31.4209 v 52.90528 c -20.5892,-9.84701 -40.0147,-17.1875 -58.2764,-22.02149 -18.2617,-4.83398 -35.8968,-7.25097 -52.9052,-7.25097 -29.5411,0 -52.3682,5.72917 -68.4815,17.1875 -15.9343,11.45833 -23.9014,27.75065 -23.9014,48.87695 0,17.72461 5.2816,31.15234 15.8448,40.2832 10.7421,8.95183 30.9732,16.2028 60.6933,21.75293 l 32.7637,6.71387 c 40.4623,7.69857 70.2718,21.30534 89.4287,40.82031 19.3359,19.33594 29.0039,45.29623 29.0039,77.88086 0,38.85091 -13.0697,68.30241 -39.209,88.35449 -25.9603,20.05209 -64.095,30.07813 -114.4043,30.07813 -18.9779,0 -39.209,-2.14844 -60.6933,-6.44531 -21.3053,-4.29688 -43.4163,-10.65268 -66.333,-19.06739 l 2.8551,-49.85834 c 22.0214,12.35352 40.7402,15.66238 61.8665,21.92866 21.1263,6.26627 41.8946,9.39941 62.3047,9.39941 30.9733,0 54.8747,-6.08724 71.7041,-18.26172 16.8295,-12.17448 25.2442,-29.54102 25.2442,-52.09961 0,-19.69401 -6.0872,-35.09114 -18.2617,-46.19141 -11.9955,-11.10026 -31.779,-19.42545 -59.3506,-24.97558 l -33.0323,-6.44531 c -40.4622,-8.05664 -69.7346,-20.67871 -87.8173,-37.86621 -18.0827,-17.1875 -27.1241,-41.08887 -27.1241,-71.70411 0,-35.44921 12.443,-63.3789 37.3291,-83.78906 25.0651,-20.41015 59.5297,-30.61523 103.3936,-30.61523 18.7988,0 37.9557,1.70085 57.4707,5.10254 19.515,3.40169 39.4776,8.50423 59.8877,15.30761 z m 108.7646,-13.15918 h 253.5157 v 45.6543 h -199.2676 v 118.70117 h 190.9424 v 45.6543 h -190.9424 v 145.28809 h 204.1015 v 45.65429 h -258.3496 z"
     inkscape:path-effect="#path-effect4"
     sodipodi:nodetypes="cccccccsccccsssccccscscscccsscsccccscscccsssscccsscsscccccccccccccc" />
  <ellipse
     style="fill:#71137d;stroke:#71137d;stroke-width:3.25508;stroke-linecap:round;stroke-linejoin:round"
     id="path2-35"
     cx="678"
     cy="39.53474"
     rx="37.46785"
     ry="39.169601" />
  <ellipse
     style="fill:#71137d;stroke:#71137d;stroke-width:3.25508;stroke-linecap:round;stroke-linejoin:round"
     id="path2-35-2"
     cx="370.99948"
     cy="181.51704"
     rx="37.46785"
     ry="39.169601" />
  <ellipse
     style="fill:#71137d;stroke:#71137d;stroke-width:3.25508;stroke-linecap:round;stroke-linejoin:round"
     id="path2-35-2-6"
     cx="203.29585"
     cy="494.50876"
     rx="37.46785"
     ry="39.169601"
     inkscape:transform-center-x="-152.33494"
     inkscape:transform-center-y="-335.80319" />
  <ellipse
     style="fill:#71137d;stroke:#71137d;stroke-width:3.25508;stroke-linecap:round;stroke-linejoin:round"
     id="path2-35-2-6-1"
     cx="678"
     cy="960.47321"
     rx="37.46785"
     ry="39.169601"
     inkscape:transform-center-x="-152.33494"
     inkscape:transform-center-y="-335.80319" />
  <ellipse
     style="fill:#71137d;stroke:#71137d;stroke-width:3.25508;stroke-linecap:round;stroke-linejoin:round"
     id="path2-35-2-6-1-0"
     cx="1142.1649"
     cy="496.00876"
     rx="37.46785"
     ry="39.169601"
     inkscape:transform-center-x="-152.33494"
     inkscape:transform-center-y="-335.80319" />
  <ellipse
     style="fill:#71137d;stroke:#71137d;stroke-width:3.25508;stroke-linecap:round;stroke-linejoin:round"
     id="path2-35-2-6-1-0-9"
     cx="992.55804"
     cy="815.59406"
     rx="37.46785"
     ry="39.169601"
     inkscape:transform-center-x="-152.33494"
     inkscape:transform-center-y="-335.80319" />
  <ellipse
     style="fill:#71137d;stroke:#71137d;stroke-width:3.25508;stroke-linecap:round;stroke-linejoin:round"
     id="path2-35-2-6-1-0-9-7"
     cx="370.99948"
     cy="815.59406"
     rx="37.46785"
     ry="39.169601"
     inkscape:transform-center-x="-152.33494"
     inkscape:transform-center-y="-335.80319" />
  <path
     d="m 781.27468,67.872181 h 18.9506 a 34.008183,34.008183 31.037668 0 1 30.04841,18.081804 L 972.80148,354.86217 a 1.9620842,1.9620842 166.03767 0 0 3.69571,-0.91887 V 90.87266 a 23.000479,23.000479 135 0 1 23.00048,-23.000479 23.178117,23.178117 45.119238 0 1 23.12983,23.226303 V 397.52858 a 21.733767,21.733767 135 0 1 -21.7338,21.73377 l -21.32341,0 a 34.831972,34.831972 31.037668 0 1 -30.77628,-18.5198 L 806.21352,131.73493 a 1.8108543,1.8108543 166.03767 0 0 -3.41086,0.84805 v 264.0278 a 22.651566,22.651566 135 0 1 -22.65157,22.65157 h -2.13649 a 21.3422,21.3422 45 0 1 -21.3422,-21.3422 V 92.474464 a 24.602283,24.602283 135 0 1 24.60228,-24.602283 z"
     style="font-size:500px;line-height:120%;font-family:Sans;-inkscape-font-specification:Sans;text-align:center;text-anchor:middle;fill:#71137d;stroke:#71137d;stroke-width:0.566929;stroke-linecap:round;stroke-linejoin:round"
     id="path1-7"
     inkscape:path-effect="#path-effect6"
     inkscape:original-d="m 756.6724,67.872181 h 64.0175 L 976.49719,361.83489 V 67.872181 h 46.13031 V 419.26235 H 958.60995 L 802.80266,125.29964 V 419.26235 H 756.6724 Z"
     transform="translate(-1.5)" />
  <path
     d="m 1197.7991,179.51 c -23.2221,0 -41.58,9.10052 -55.0739,27.30158 -13.4938,18.04415 -20.2408,42.83524 -20.2408,74.37327 0,31.53804 6.6685,56.40758 20.0054,74.60864 13.4939,18.04415 31.9304,27.06622 55.3093,27.06622 23.0651,0 41.3446,-9.10053 54.8385,-27.30158 13.4939,-18.20106 20.2408,-42.99214 20.2408,-74.37328 0,-31.22422 -6.7469,-55.93686 -20.2408,-74.13791 C 1239.1437,188.68898 1220.8642,179.51 1197.7991,179.51 Z m 0,-36.71592 c 37.6574,0 67.2341,12.23864 88.7302,36.71592 21.496,24.47728 32.244,58.3689 32.244,101.67485 0,43.14905 -10.748,77.04067 -32.244,101.67486 -21.4961,24.47728 -51.0728,36.71592 -88.7302,36.71592 -37.8143,0 -67.4694,-12.23864 -88.9655,-36.71592 -21.3392,-24.63419 -32.0087,-58.52581 -32.0087,-101.67486 0,-43.30595 10.6695,-77.19757 32.0087,-101.67485 21.4961,-24.47728 51.1512,-36.71592 88.9655,-36.71592 z"
     style="font-size:500px;line-height:120%;font-family:Sans;-inkscape-font-specification:Sans;text-align:center;text-anchor:middle;fill:#71137d;stroke:#71137d;stroke-width:0.566929;stroke-linecap:round;stroke-linejoin:round"
     id="path1-8" />
  <path
     d="m 1502.9777,188.67441 c -5.33,-0.47333 -9.9086,-0.26387 -12.8825,-0.26387 -24.4774,0 -43.306,8.00219 -56.4861,24.00656 -13.0232,15.84747 -19.5347,38.67724 -19.5347,68.48931 l -3.0257,120.04761 a 19.281178,19.281178 135.69692 0 1 -19.2582,18.79536 l -1.7555,0.002 a 19.485046,19.485046 44.975031 0 1 -19.502,-19.48504 V 176.4197 a 20.253266,20.253266 135 0 1 20.2533,-20.25327 h 0.3619 a 22.926237,22.926237 45 0 1 22.9262,22.92624 v 7.76962 c 0,5.66451 2.223,6.22319 5.4798,1.59123 8.2175,-11.68708 18.2373,-20.64503 30.0593,-26.87384 14.5922,-7.84529 32.3226,-11.76793 53.191,-11.76793 2.9812,0 6.2762,0.23536 9.8851,0.70608 6.6662,0.57968 11.9224,7.29995 11.8226,14.27258 l -0.1139,7.9683 c -0.1754,12.25778 -9.3084,16.99134 -21.4206,15.9157 z"
     style="font-size:500px;line-height:120%;font-family:Sans;-inkscape-font-specification:Sans;text-align:center;text-anchor:middle;fill:#71137d;stroke:#71137d;stroke-width:0.566929;stroke-linecap:round;stroke-linejoin:round"
     id="path1-89"
     inkscape:path-effect="#path-effect1"
     inkscape:original-d="m 1524.0808,194.95339 c -13.0272,-7.56417 -27.4188,-6.54285 -33.9856,-6.54285 -24.4774,0 -43.306,8.00219 -56.4861,24.00656 -13.0232,15.84747 -19.5347,38.67724 -19.5347,68.48931 l -3.499,138.8266 -40.0424,0.0349 V 156.16643 h 43.5414 v 40.95237 c 9.1005,-16.00437 20.9469,-27.85074 35.5391,-35.53912 14.5922,-7.84529 32.3226,-11.76793 53.191,-11.76793 2.9812,0 6.2762,0.23536 9.8851,0.70608 3.6088,0.31381 7.6098,0.86298 12.0032,1.64751 z"
     transform="translate(-1.5)" />
  <path
     d="m 1766.7843,179.03216 0,-108.147579 a 23.255489,23.255489 135 0 1 23.2555,-23.255489 21.71071,21.71071 49.142039 0 1 20.0752,23.209808 l 0.3507,330.04312 a 18.779736,18.779736 135.38453 0 1 -19.0517,18.79772 l -4.0144,-0.0581 c -10.873,-0.15751 -20.4907,-9.07419 -20.5246,-19.93784 -0.016,-5.03977 0.01,-10.43378 -3e-4,-15.53046 -0.01,-5.43838 -2.2611,-5.99666 -5.3901,-1.55024 -8.1505,11.58178 -17.9164,20.50578 -29.298,26.77199 -13.8077,7.53147 -30.4396,11.29721 -49.896,11.29721 -31.8517,0 -57.8197,-12.70935 -77.9036,-38.12807 -19.927,-25.41872 -29.8905,-58.83962 -29.8905,-100.26271 0,-41.42308 9.9635,-74.84398 29.8905,-100.26269 20.0839,-25.41872 46.0519,-38.12808 77.9036,-38.12808 19.4564,0 36.0883,3.84419 49.896,11.53256 11.0095,5.93765 20.5072,14.41091 28.4934,25.41979 3.6384,5.01552 6.1043,4.38804 6.1043,-1.81089 z m -147.5697,103.24931 c 0,31.85185 6.5116,56.8783 19.5347,75.07935 13.1801,18.04415 31.2242,27.06622 54.1325,27.06622 22.9082,0 40.9524,-9.02207 54.1324,-27.06622 13.1801,-18.20105 19.7701,-43.2275 19.7701,-75.07935 0,-31.85185 -6.59,-56.79984 -19.7701,-74.84399 -13.18,-18.20105 -31.2242,-27.30158 -54.1324,-27.30158 -22.9083,0 -40.9524,9.10053 -54.1325,27.30158 -13.0231,18.04415 -19.5347,42.99214 -19.5347,74.84399 z"
     style="font-size:500px;line-height:120%;font-family:Sans;-inkscape-font-specification:Sans;text-align:center;text-anchor:middle;fill:#71137d;stroke:#71137d;stroke-width:0.566929;stroke-linecap:round;stroke-linejoin:round"
     id="path1-2"
     inkscape:path-effect="#path-effect2"
     inkscape:original-d="M 1766.7843,190.25632 V 47.629092 h 43.306 l 0.3957,372.326938 -42.7737,-0.61964 c -1.3011,-6.28963 -0.6187,-30.01978 -0.928,-45.02975 -9.1005,15.69056 -20.633,27.38003 -34.5977,35.0684 -13.8077,7.53147 -30.4396,11.29721 -49.896,11.29721 -31.8517,0 -57.8197,-12.70935 -77.9036,-38.12807 -19.927,-25.41872 -29.8905,-58.83962 -29.8905,-100.26271 0,-41.42308 9.9635,-74.84398 29.8905,-100.26269 20.0839,-25.41872 46.0519,-38.12808 77.9036,-38.12808 19.4564,0 36.0883,3.84419 49.896,11.53256 13.9647,7.53147 25.4972,19.14249 34.5977,34.83306 z m -147.5697,92.02515 c 0,31.85185 6.5116,56.8783 19.5347,75.07935 13.1801,18.04415 31.2242,27.06622 54.1325,27.06622 22.9082,0 40.9524,-9.02207 54.1324,-27.06622 13.1801,-18.20105 19.7701,-43.2275 19.7701,-75.07935 0,-31.85185 -6.59,-56.79984 -19.7701,-74.84399 -13.18,-18.20105 -31.2242,-27.30158 -54.1324,-27.30158 -22.9083,0 -40.9524,9.10053 -54.1325,27.30158 -13.0231,18.04415 -19.5347,42.99214 -19.5347,74.84399 z"
     sodipodi:nodetypes="cccccccscscsccscscscscs"
     transform="translate(-1.5)" />
  <path
     d="m 1910.7849,156.74577 h 2.8466 a 20.327825,20.327825 45 0 1 20.3278,20.32782 v 222.2032 a 21.070452,21.070452 135 0 1 -21.0705,21.07045 h -0.4396 a 21.795897,21.795897 45 0 1 -21.7959,-21.7959 v -221.674 a 20.13157,20.13157 135 0 1 20.1316,-20.13157 z m -1.0733,-102.616292 h 6.1615 a 18.086219,18.086219 45 0 1 18.0862,18.086219 V 90.138063 A 18.829937,18.829937 135 0 1 1915.1294,108.968 h -5.1309 a 19.345176,19.345176 45 0 1 -19.3452,-19.345176 v -16.43509 a 19.058256,19.058256 135 0 1 19.0583,-19.058256 z"
     style="font-size:500px;line-height:120%;font-family:Sans;-inkscape-font-specification:Sans;text-align:center;text-anchor:middle;fill:#71137d;stroke:#71137d;stroke-width:0.566929;stroke-linecap:round;stroke-linejoin:round"
     id="path1-9"
     inkscape:path-effect="#path-effect5"
     inkscape:original-d="m 1890.6533,156.74577 h 43.306 v 263.60147 h -43.306 z m 0,-102.616292 h 43.306 V 108.968 h -43.306 z"
     transform="translate(-6)" />
</svg>
